PathFileType	4	(X/Y/Z)	./resultDataOpenSim/trcMotMarkerGrf/sub06/qtm-15-08.trc
DataRate	CameraRate	NumFrames	NumMarkers	Units	OrigDataRate	OrigDataStartFrame	OrigNumFrames
250.000000	250.000000	10	24	m	250.000000	1	487
Frame#	Time	L.Toe.Tip			R.Toe.Tip			L.Ankle.Lat			R.Ankle.Lat			L.Ankle.Med			R.Ankle.Med			L.Heel			R.Heel			L.Knee.Lat			R.Knee.Lat			L.Knee.Med			R.Knee.Med			L.Thigh.Upper			R.Thigh.Upper			L.ASIS			R.ASIS			V.Sacral			L.Acromium			R.Acromium			C7			L.Elbow			R.Elbow			L.Wrist.Lat			R.Wrist.Lat
		X1	Y1	Z1	X2	Y2	Z2	X3	Y3	Z3	X4	Y4	Z4	X5	Y5	Z5	X6	Y6	Z6	X7	Y7	Z7	X8	Y8	Z8	X9	Y9	Z9	X10	Y10	Z10	X11	Y11	Z11	X12	Y12	Z12	X13	Y13	Z13	X14	Y14	Z14	X15	Y15	Z15	X16	Y16	Z16	X17	Y17	Z17	X18	Y18	Z18	X19	Y19	Z19	X20	Y20	Z20	X21	Y21	Z21	X22	Y22	Z22	X23	Y23	Z23	X24	Y24	Z24

1	0	-1.6177584	0.032303467	-0.12631218	-1.0119485	0.11252329	0.089818013	-1.7396594	0.07360499	-0.1346717	-1.1406904	0.086738609	0.10343337	-1.7288429	0.083847142	-0.049788649	-1.1306729	0.11507841	0.017885223	NaN	NaN	NaN	-1.1800897	0.043369428	0.031917124	-1.5841686	0.41230738	-0.14825939	-1.2472275	0.46266309	0.1066295	-1.5949561	0.41388244	-0.027057479	-1.2645617	0.43643997	-0.019605585	-1.4865659	0.7854608	-0.20836362	-1.4491014	0.77709903	0.14158088	-1.3982627	0.82286206	-0.17045145	-1.3682174	0.8293257	0.073156737	-1.5590115	0.91193099	-0.019093067	-1.4062038	1.3131047	-0.21819841	-1.4130188	1.2962669	0.1425513	-1.479697	1.3446087	-0.038125526	-1.4203552	0.99377971	-0.30489762	-1.5596942	1.0210702	0.20895453	-1.2111543	0.85730723	-0.28178032	-1.4745614	0.79094159	0.23748226
2	0.004	-1.6187711	0.032259653	-0.12552071	-0.99835281	0.11685967	0.089575295	-1.7394249	0.074127943	-0.13469167	-1.126339	0.087866742	0.10355789	-1.7287114	0.084308329	-0.0498477	-1.1172168	0.11650074	0.017991816	NaN	NaN	NaN	-1.1650432	0.043437622	0.03227461	-1.5808339	0.41152047	-0.14838856	-1.2407436	0.4613175	0.10660564	-1.590963	0.41301937	-0.027228713	-1.2582531	0.43461785	-0.019916163	-1.4812355	0.78406482	-0.20773486	-1.442873	0.77520475	0.14146033	-1.3927531	0.82118648	-0.17105303	-1.361692	0.82769858	0.073022402	-1.5517321	0.91020964	-0.018603919	-1.4002691	1.3115241	-0.2178929	-1.4075795	1.2946206	0.14285943	-1.4739376	1.3429982	-0.037906939	-1.4121535	0.99215934	-0.30474995	-1.5540161	1.0192513	0.20817674	-1.2024981	0.85693834	-0.2809704	-1.471671	0.78895544	0.23800308
3	0.008	-1.6193891	0.032216189	-0.12505394	-0.98513979	0.1209951	0.08930365	-1.739126	0.07472535	-0.13473735	-1.1124724	0.088941869	0.10356721	-1.7284503	0.084853003	-0.049938083	-1.1040687	0.11790262	0.018036448	NaN	NaN	NaN	-1.1503666	0.043569329	0.032463313	-1.5774522	0.41075887	-0.14855223	-1.2341919	0.46004178	0.10658873	-1.5870255	0.41213718	-0.027402266	-1.2518902	0.43284344	-0.020197028	-1.4758765	0.78265977	-0.20710918	-1.4363287	0.77341378	0.14144865	-1.3872183	0.81954825	-0.17146892	-1.355127	0.82606296	0.072879278	-1.544935	0.90858113	-0.017893822	-1.3943431	1.3099743	-0.21758338	-1.4021219	1.2929796	0.14320855	-1.4681404	1.3414257	-0.037628778	-1.4038633	0.99058576	-0.30449166	-1.5482455	1.0173962	0.20736907	-1.1938826	0.85653125	-0.28015004	-1.4687372	0.78700519	0.2385295
4	0.012	-1.6195759	0.032174387	-0.12494342	-0.97257394	0.12480461	0.089006045	-1.7387379	0.075417865	-0.13481909	-1.0993546	0.089911296	0.10340733	-1.7280281	0.085516242	-0.050048571	-1.0914461	0.11924262	0.017977235	NaN	NaN	NaN	-1.1362695	0.043777263	0.032429039	-1.5740039	0.41003711	-0.14876128	-1.2275171	0.45886914	0.10660071	-1.5830142	0.41123979	-0.027597258	-1.2454331	0.43114759	-0.02043669	-1.4704759	0.78123572	-0.20649864	-1.4294094	0.77174295	0.14156051	-1.3816457	0.81794878	-0.17169578	-1.3484988	0.82443109	0.072730726	-1.5387101	0.90708381	-0.016981062	-1.3883996	1.3084675	-0.21726238	-1.3966084	1.2913406	0.14360816	-1.4622736	1.3399088	-0.037270488	-1.395511	0.98907979	-0.30413066	-1.5422901	1.0154647	0.20649509	-1.185321	0.85607058	-0.27931082	-1.4657303	0.78512029	0.23906575
5	0.016	-1.6195441	0.032134405	-0.12502039	-0.96076126	0.1282346	0.088685733	-1.7382793	0.076182676	-0.1349309	-1.0870449	0.090731359	0.10309159	-1.7276881	0.086226895	-0.050084707	-1.0794647	0.12046724	0.017805098	NaN	NaN	NaN	-1.1228456	0.0440305	0.032209691	-1.5704618	0.40934551	-0.14900535	-1.2207289	0.45778508	0.10666631	-1.5787676	0.41033468	-0.027831791	-1.2388655	0.42955155	-0.020652661	-1.465046	0.77979238	-0.20592615	-1.4222762	0.770151	0.14173353	-1.3760301	0.81639281	-0.1718327	-1.3418128	0.8228234	0.072586394	-1.5328399	0.90569438	-0.016016557	-1.3824051	1.3070041	-0.21691746	-1.3910166	1.2897067	0.14404817	-1.4563367	1.3384426	-0.036870402	-1.3872281	0.98763239	-0.30374541	-1.5361649	1.0134692	0.20557677	-1.1768291	0.85556602	-0.27845807	-1.4626172	0.78332298	0.23961238
6	0.02	-1.6194777	0.032095002	-0.12513885	-0.94960493	0.13126949	0.088295095	-1.7377748	0.077008104	-0.13505999	-1.075485	0.091380265	0.10267739	-1.7281257	0.08679414	-0.049831934	-1.0681384	0.12152905	0.017537491	NaN	NaN	NaN	-1.1101655	0.044276247	0.031852741	-1.5667875	0.40865919	-0.14925784	-1.2138659	0.456741	0.10679877	-1.5742587	0.40941765	-0.028110644	-1.2321598	0.42806955	-0.020883108	-1.459594	0.77834017	-0.20540591	-1.4150987	0.76859425	0.14190718	-1.3703617	0.81489458	-0.17194956	-1.3350841	0.82124919	0.072447738	-1.5270864	0.90436102	-0.015080063	-1.3763428	1.3055819	-0.21653491	-1.3853435	1.2880916	0.14452256	-1.4503377	1.3370131	-0.036473087	-1.3790924	0.98622457	-0.30336266	-1.5300948	1.0115429	0.20478086	-1.1684227	0.85503685	-0.27760188	-1.4593582	0.78161203	0.24017059
7	0.024	-1.6194458	0.032056432	-0.12524186	-0.93892977	0.13388787	0.087768337	-1.7372229	0.077910976	-0.1351985	-1.06459	0.091853306	0.10222888	-1.7299037	0.087092795	-0.049137209	-1.0574395	0.12238571	0.017197605	NaN	NaN	NaN	-1.0983176	0.044457367	0.031384389	-1.5629841	0.40797299	-0.14948705	-1.2069203	0.45569412	0.10699466	-1.5695598	0.40848083	-0.028424055	-1.2252769	0.42671514	-0.021159654	-1.4541264	0.77689731	-0.20494443	-1.4079744	0.76704995	0.14205868	-1.3646439	0.81345204	-0.17207516	-1.3283254	0.81971235	0.072306323	-1.5213181	0.90305375	-0.014135214	-1.3702186	1.3041994	-0.21610854	-1.3795941	1.2865125	0.14503095	-1.4442724	1.3356227	-0.036062409	-1.3710816	0.98485249	-0.30295788	-1.524469	1.0099213	0.20439122	-1.1601089	0.85449117	-0.27674277	-1.4559392	0.77996509	0.24074131
8	0.028	-1.6194493	0.032020487	-0.12532552	-0.92870289	0.1360042	0.087115291	-1.7366116	0.078906851	-0.1353473	-1.0543048	0.092147575	0.10177261	-1.7323534	0.087320881	-0.048244796	-1.0473551	0.12299788	0.01679802	NaN	NaN	NaN	-1.0873522	0.044531229	0.030828122	-1.5590714	0.40730941	-0.14968817	-1.1998382	0.45463618	0.10722837	-1.5647523	0.40751563	-0.028747531	-1.2181905	0.42551763	-0.021483357	-1.4486622	0.77547853	-0.20454667	-1.4009222	0.76552529	0.14219245	-1.3588901	0.81205284	-0.17221855	-1.3215289	0.8182188	0.072154107	-1.5154463	0.90178044	-0.01312186	-1.3640402	1.3028572	-0.2156416	-1.3737664	1.2849824	0.14557259	-1.4381332	1.3342909	-0.035592926	-1.3631457	0.98352699	-0.3025153	-1.5195457	1.008772	0.20459459	-1.1518819	0.85391918	-0.27587675	-1.4523606	0.77837057	0.24132298
9	0.032	-1.6194698	0.031987854	-0.12539952	-0.91906224	0.13747938	0.086428425	-1.7359378	0.07999735	-0.13551234	-1.0446189	0.092256478	0.10129567	-1.7338447	0.087895802	-0.047704387	-1.0378985	0.12333716	0.016337136	NaN	NaN	NaN	-1.0772571	0.044466231	0.030222477	-1.5550261	0.40668623	-0.14989508	-1.1925948	0.45358893	0.10745371	-1.5598889	0.40651876	-0.029052667	-1.210903	0.42452008	-0.021823032	-1.4432179	0.77408559	-0.20419749	-1.393893	0.76405562	0.14232023	-1.3531065	0.81069182	-0.17236734	-1.3146723	0.81677698	0.071989949	-1.5093345	0.90055018	-0.012112617	-1.3578087	1.3015579	-0.21514479	-1.3678434	1.2835085	0.14614442	-1.4319281	1.3330297	-0.035073641	-1.3552569	0.98225968	-0.30202495	-1.5150635	1.0079665	0.20519857	-1.1437354	0.85331282	-0.27500598	-1.4486109	0.77684274	0.24191502
10	0.036	-1.61949	0.031957581	-0.12546916	-0.91012812	0.13824352	0.085766433	-1.7351838	0.081188681	-0.13570336	-1.0355526	0.092169523	0.10077963	-1.7334757	0.089034827	-0.047817555	-1.0290858	0.12338985	0.015802894	NaN	NaN	NaN	-1.0680049	0.044228148	0.029615377	-1.5507968	0.406093	-0.15013557	-1.1852268	0.452588	0.10761716	-1.5549723	0.40550209	-0.029326133	-1.2034421	0.4237538	-0.022142462	-1.4377896	0.77271736	-0.20386558	-1.3868054	0.76268835	0.14245271	-1.3472803	0.80937498	-0.17249008	-1.3077408	0.81539788	0.071815323	-1.5027834	0.89933531	-0.011378001	-1.3515273	1.3003078	-0.2146302	-1.3618123	1.2820929	0.14674363	-1.4256806	1.331825	-0.034580371	-1.3474118	0.98106012	-0.3014824	-1.5103085	1.0071112	0.20568361	-1.1356729	0.85268148	-0.27413777	-1.4446919	0.77539982	0.2425175
